<svg width="454" height="229" viewBox="0 0 454 229" fill="none" xmlns="http://www.w3.org/2000/svg">
<path d="M0 20C0 8.9543 8.95431 0 20 0H372.5C383.546 0 392.5 8.9543 392.5 20V41.5C392.5 52.5457 401.454 61.5 412.5 61.5H434C445.046 61.5 454 70.4543 454 81.5V209C454 220.046 445.046 229 434 229H20C8.95429 229 0 220.046 0 209V20Z" fill="#F0F0FC"/>
<circle cx="428.332" cy="25.3323" r="25.3323" fill="#F0F0FC"/>
<path d="M428.166 14.3328L431.999 21.888L439.665 25.6656L431.999 29.4432L428.166 36.9985L424.332 29.4432L416.666 25.6656L424.332 21.888L428.166 14.3328Z" fill="#0C5E84"/>
</svg>
