<svg width="195" height="22" viewBox="0 0 195 22" fill="none" xmlns="http://www.w3.org/2000/svg">
<path d="M191.052 13.8208L192.368 16.425L195 17.7271L192.368 19.0292L191.052 21.6333L189.736 19.0292L187.104 17.7271L189.736 16.425L191.052 13.8208Z" fill="#89CBD0"/>
<path d="M3.23417 12.2667V18.7667H17.3163V21.6333H0V0H17.2826V2.86667H3.23417V9.46667H14.7222V12.2667H3.23417Z" fill="black"/>
<path d="M20.4602 5H23.6944V21.6333H20.4602V5ZM30.0953 4.66667C31.0386 4.66667 31.8921 4.8 32.6557 5.06667C33.4193 5.33333 34.0707 5.73333 34.6097 6.26667C35.1487 6.77778 35.5642 7.42222 35.8562 8.2C36.1706 8.95556 36.3279 9.82222 36.3279 10.8V21.6333H33.1274V11.5C33.1274 10.1889 32.8017 9.21111 32.1504 8.56667C31.5215 7.9 30.5558 7.56667 29.2531 7.56667C28.2424 7.56667 27.3216 7.8 26.4906 8.26667C25.6596 8.73333 24.9746 9.35556 24.4355 10.1333C23.919 10.8889 23.6045 11.7444 23.4922 12.7L23.4585 10.8667C23.5708 9.97778 23.8067 9.15556 24.166 8.4C24.5478 7.64444 25.0195 6.98889 25.581 6.43333C26.1649 5.85556 26.8387 5.42222 27.6023 5.13333C28.366 4.82222 29.197 4.66667 30.0953 4.66667Z" fill="black"/>
<path d="M56.0253 15.3C55.8906 16.6778 55.4414 17.8778 54.6777 18.9C53.9366 19.9 52.9596 20.6667 51.7468 21.2C50.534 21.7333 49.1864 22 47.7041 22C46.0645 22 44.5597 21.6667 43.1897 21C41.8197 20.3111 40.7191 19.3222 39.8881 18.0333C39.0796 16.7222 38.6753 15.1667 38.6753 13.3667C38.6753 11.5444 39.0796 9.98889 39.8881 8.7C40.7191 7.38889 41.8197 6.38889 43.1897 5.7C44.5597 5.01111 46.0645 4.66667 47.7041 4.66667C49.1864 4.66667 50.5227 4.93333 51.7131 5.46667C52.9034 6 53.8804 6.76667 54.6441 7.76667C55.4077 8.74445 55.8681 9.92222 56.0253 11.3H53.0943C52.7125 10.1 52.0275 9.15556 51.0393 8.46667C50.0735 7.75556 48.9618 7.4 47.7041 7.4C46.6709 7.4 45.7052 7.63333 44.8068 8.1C43.9309 8.56667 43.2234 9.24444 42.6843 10.1333C42.1678 11 41.9095 12.0778 41.9095 13.3667C41.9095 14.6111 42.1678 15.6778 42.6843 16.5667C43.2234 17.4333 43.9309 18.1 44.8068 18.5667C45.6827 19.0111 46.6485 19.2333 47.7041 19.2333C49.1415 19.2333 50.3094 18.8889 51.2077 18.2C52.1061 17.5111 52.7462 16.5444 53.128 15.3H56.0253Z" fill="black"/>
<path d="M66.4982 22C64.8587 22 63.3539 21.6556 61.9838 20.9667C60.6138 20.2778 59.5245 19.2889 58.716 18C57.9074 16.7111 57.5032 15.1667 57.5032 13.3667C57.5032 11.5444 57.9074 9.98889 58.716 8.7C59.5245 7.38889 60.6138 6.38889 61.9838 5.7C63.3539 5.01111 64.8587 4.66667 66.4982 4.66667C68.1378 4.66667 69.6313 5.01111 70.9789 5.7C72.3265 6.38889 73.4045 7.38889 74.2131 8.7C75.0216 9.98889 75.4259 11.5444 75.4259 13.3667C75.4259 15.1667 75.0216 16.7111 74.2131 18C73.4045 19.2889 72.3265 20.2778 70.9789 20.9667C69.6313 21.6556 68.1378 22 66.4982 22ZM66.4982 19.2333C67.5089 19.2333 68.441 19.0111 69.2944 18.5667C70.1703 18.1 70.8666 17.4333 71.3832 16.5667C71.9222 15.6778 72.1917 14.6111 72.1917 13.3667C72.1917 12.1 71.9222 11.0222 71.3832 10.1333C70.8666 9.24444 70.1703 8.56667 69.2944 8.1C68.441 7.63333 67.5089 7.4 66.4982 7.4C65.4875 7.4 64.5442 7.63333 63.6683 8.1C62.7924 8.54445 62.0849 9.21111 61.5459 10.1C61.0069 10.9889 60.7373 12.0778 60.7373 13.3667C60.7373 14.6111 60.9956 15.6778 61.5122 16.5667C62.0512 17.4333 62.7587 18.1 63.6346 18.5667C64.5105 19.0111 65.4651 19.2333 66.4982 19.2333Z" fill="black"/>
<path d="M77.7991 5H81.0333V21.6333H77.7991V5ZM87.4343 4.66667C88.3776 4.66667 89.231 4.8 89.9947 5.06667C90.7583 5.33333 91.4096 5.73333 91.9486 6.26667C92.4877 6.77778 92.9032 7.42222 93.1951 8.2C93.5096 8.95556 93.6668 9.82222 93.6668 10.8V21.6333H90.4663V11.5C90.4663 10.1889 90.1406 9.21111 89.4893 8.56667C88.8605 7.9 87.8947 7.56667 86.592 7.56667C85.5814 7.56667 84.6605 7.8 83.8295 8.26667C82.9985 8.73333 82.3135 9.35556 81.7745 10.1333C81.2579 10.8889 80.9435 11.7444 80.8312 12.7L80.7975 10.8667C80.9098 9.97778 81.1456 9.15556 81.505 8.4C81.8868 7.64444 82.3584 6.98889 82.9199 6.43333C83.5039 5.85556 84.1776 5.42222 84.9413 5.13333C85.7049 4.82222 86.5359 4.66667 87.4343 4.66667Z" fill="black"/>
<path d="M95.711 5H106.593V7.76667H95.711V5ZM99.5516 0.6H102.752V21.6333H99.5516V0.6Z" fill="black"/>
<path d="M108.645 5H111.879V21.6333H108.645V5ZM117.572 7.83333C116.404 7.83333 115.405 8.1 114.574 8.63333C113.765 9.16667 113.114 9.82222 112.62 10.6C112.148 11.3778 111.834 12.1222 111.677 12.8333L111.643 10.9333C111.665 10.7111 111.722 10.3667 111.811 9.9C111.924 9.41111 112.115 8.86667 112.384 8.26667C112.654 7.66667 113.013 7.1 113.462 6.56667C113.911 6.01111 114.473 5.55556 115.147 5.2C115.82 4.84445 116.629 4.66667 117.572 4.66667V7.83333Z" fill="black"/>
<path d="M132.448 16.2333H135.514C135.334 17.3222 134.908 18.3 134.234 19.1667C133.56 20.0333 132.673 20.7222 131.572 21.2333C130.472 21.7444 129.18 22 127.698 22C125.946 22 124.385 21.6333 123.015 20.9C121.645 20.1667 120.567 19.1556 119.781 17.8667C118.995 16.5778 118.602 15.0778 118.602 13.3667C118.602 11.6333 118.984 10.1222 119.747 8.83333C120.511 7.52222 121.567 6.5 122.914 5.76667C124.262 5.03333 125.8 4.66667 127.53 4.66667C129.349 4.66667 130.876 5.02222 132.111 5.73333C133.347 6.44444 134.256 7.5 134.84 8.9C135.447 10.2778 135.694 12 135.581 14.0667H121.802C121.915 15.0667 122.218 15.9556 122.712 16.7333C123.229 17.5111 123.902 18.1222 124.733 18.5667C125.587 19.0111 126.564 19.2333 127.664 19.2333C128.9 19.2333 129.933 18.9556 130.764 18.4C131.595 17.8444 132.156 17.1222 132.448 16.2333ZM127.563 7.4C126.103 7.4 124.891 7.78889 123.925 8.56667C122.959 9.32222 122.319 10.3333 122.004 11.6H132.347C132.257 10.2444 131.763 9.21111 130.865 8.5C129.966 7.76667 128.866 7.4 127.563 7.4Z" fill="black"/>
<path d="M152.497 19.8333H151.115L161.862 0H165.097V21.6333H161.862V5.03333L162.57 5.2L153.507 21.6333H150.105L141.042 5.23333L141.75 5.06667V21.6333H138.516V0H141.75L152.497 19.8333Z" fill="black"/>
<path d="M181.849 16.2333H184.915C184.735 17.3222 184.308 18.3 183.635 19.1667C182.961 20.0333 182.074 20.7222 180.973 21.2333C179.873 21.7444 178.581 22 177.099 22C175.347 22 173.786 21.6333 172.416 20.9C171.046 20.1667 169.968 19.1556 169.182 17.8667C168.396 16.5778 168.003 15.0778 168.003 13.3667C168.003 11.6333 168.385 10.1222 169.148 8.83333C169.912 7.52222 170.967 6.5 172.315 5.76667C173.663 5.03333 175.201 4.66667 176.93 4.66667C178.75 4.66667 180.277 5.02222 181.512 5.73333C182.747 6.44444 183.657 7.5 184.241 8.9C184.847 10.2778 185.094 12 184.982 14.0667H171.203C171.316 15.0667 171.619 15.9556 172.113 16.7333C172.629 17.5111 173.303 18.1222 174.134 18.5667C174.988 19.0111 175.965 19.2333 177.065 19.2333C178.3 19.2333 179.334 18.9556 180.165 18.4C180.996 17.8444 181.557 17.1222 181.849 16.2333ZM176.964 7.4C175.504 7.4 174.291 7.78889 173.326 8.56667C172.36 9.32222 171.72 10.3333 171.405 11.6H181.748C181.658 10.2444 181.164 9.21111 180.266 8.5C179.367 7.76667 178.267 7.4 176.964 7.4Z" fill="black"/>
</svg>
