<svg width="156" height="140" viewBox="0 0 156 140" fill="none" xmlns="http://www.w3.org/2000/svg">
<g clip-path="url(#clip0_543_70)">
<path d="M154.631 53.5388C154.576 53.5389 154.521 53.5217 154.475 53.4898L78.7854 0.791307C78.5551 0.631682 78.2814 0.546376 78.0011 0.546854C77.7208 0.547331 77.4474 0.63357 77.2176 0.793979L2.07302 53.4893C2.01358 53.5309 1.94002 53.5473 1.86851 53.5348C1.79701 53.5222 1.73341 53.4818 1.69172 53.4224C1.65003 53.3629 1.63366 53.2894 1.64621 53.2179C1.65876 53.1464 1.6992 53.0828 1.75864 53.0412L76.9033 0.345887C77.225 0.121348 77.6078 0.000647261 78.0002 2.59591e-06C78.3926 -0.000642069 78.7757 0.118799 79.0982 0.34228L154.788 53.0406C154.836 53.0739 154.872 53.1216 154.891 53.1768C154.909 53.2319 154.91 53.2916 154.893 53.3472C154.875 53.4028 154.84 53.4514 154.793 53.4858C154.746 53.5203 154.69 53.5388 154.631 53.5388L154.631 53.5388Z" fill="#060606"/>
<path d="M6.36694 55.4068L78.0755 2.27612L150.328 59.1873L81.7702 99.8185L44.5492 91.3366L6.36694 55.4068Z" fill="#E6E6E6"/>
<path d="M47.691 124.915H12.2652C12.0477 124.915 11.8323 124.873 11.6312 124.79C11.4302 124.707 11.2475 124.585 11.0935 124.431C10.9396 124.277 10.8175 124.095 10.7342 123.894C10.6509 123.693 10.608 123.478 10.608 123.26C10.608 123.043 10.6509 122.827 10.7342 122.627C10.8175 122.426 10.9396 122.243 11.0935 122.089C11.2475 121.936 11.4302 121.814 11.6312 121.731C11.8323 121.648 12.0477 121.605 12.2652 121.606H47.691C47.9085 121.605 48.124 121.648 48.325 121.731C48.5261 121.814 48.7088 121.936 48.8627 122.089C49.0166 122.243 49.1387 122.426 49.222 122.627C49.3053 122.827 49.3482 123.043 49.3482 123.26C49.3482 123.478 49.3053 123.693 49.222 123.894C49.1387 124.095 49.0166 124.277 48.8627 124.431C48.7088 124.585 48.5261 124.707 48.325 124.79C48.124 124.873 47.9085 124.915 47.691 124.915V124.915Z" fill="#0C5E84"/>
<path d="M24.9752 117.801H12.2652C12.0477 117.801 11.8323 117.759 11.6312 117.676C11.4302 117.593 11.2475 117.471 11.0935 117.317C10.9396 117.163 10.8175 116.981 10.7342 116.78C10.6509 116.579 10.608 116.364 10.608 116.146C10.608 115.929 10.6509 115.714 10.7342 115.513C10.8175 115.312 10.9396 115.129 11.0935 114.976C11.2475 114.822 11.4302 114.7 11.6312 114.617C11.8323 114.534 12.0477 114.491 12.2652 114.492H24.9752C25.1927 114.491 25.4082 114.534 25.6092 114.617C25.8103 114.7 25.993 114.822 26.1469 114.976C26.3008 115.129 26.4229 115.312 26.5062 115.513C26.5895 115.714 26.6324 115.929 26.6324 116.146C26.6324 116.364 26.5895 116.579 26.5062 116.78C26.4229 116.981 26.3008 117.163 26.1469 117.317C25.993 117.471 25.8103 117.593 25.6092 117.676C25.4082 117.759 25.1927 117.801 24.9752 117.801Z" fill="#0C5E84"/>
<path d="M79.0838 84.9999C78.8146 85.0002 78.5478 84.9479 78.2986 84.8461L34.0737 66.5008V9.0769C34.0743 8.56912 34.2763 8.0823 34.6355 7.72325C34.9946 7.36419 35.4816 7.16221 35.9895 7.16162H120.832C121.34 7.16221 121.826 7.36419 122.186 7.72325C122.545 8.0823 122.747 8.56912 122.747 9.0769V66.5409L122.664 66.5764L79.8928 84.8371C79.6367 84.9447 79.3616 85.0001 79.0838 84.9999Z" fill="white"/>
<path d="M79.0838 85.1367C78.7967 85.137 78.5123 85.0813 78.2465 84.9729L33.9369 66.5923V9.07699C33.9375 8.53293 34.154 8.01133 34.5388 7.62663C34.9236 7.24192 35.4453 7.02552 35.9895 7.0249H120.832C121.376 7.02552 121.898 7.24192 122.282 7.62663C122.667 8.01133 122.884 8.53293 122.884 9.07699V66.6313L79.9466 84.963C79.6735 85.0779 79.3801 85.1369 79.0838 85.1367ZM34.4842 66.2267L78.4552 84.4669C78.8653 84.6333 79.3246 84.6305 79.7327 84.4593L122.337 66.27V9.07699C122.336 8.67802 122.178 8.29553 121.895 8.01341C121.613 7.7313 121.231 7.5726 120.832 7.57212H35.9895C35.5905 7.5726 35.2079 7.7313 34.9257 8.01341C34.6435 8.29553 34.4847 8.67802 34.4843 9.07699L34.4842 66.2267Z" fill="#060606"/>
<path d="M154.084 52.9916H154.029L122.611 66.404L79.623 84.7551C79.455 84.8258 79.2748 84.8626 79.0925 84.8635C78.9103 84.8645 78.7297 84.8295 78.561 84.7606L34.2105 66.3657L2.01976 53.0135L1.97058 52.9916H1.91579C1.40786 52.9921 0.920901 53.1941 0.561742 53.5532C0.202584 53.9122 0.000563584 54.3991 0 54.9069V138.085C0.000564307 138.592 0.202585 139.079 0.561742 139.438C0.9209 139.797 1.40786 139.999 1.91579 140H154.084C154.592 139.999 155.079 139.797 155.438 139.438C155.797 139.079 155.999 138.592 156 138.085V54.9069C155.999 54.3991 155.797 53.9122 155.438 53.5532C155.079 53.1941 154.592 52.9921 154.084 52.9916ZM155.453 138.085C155.452 138.447 155.308 138.795 155.052 139.052C154.795 139.308 154.447 139.453 154.084 139.453H1.91579C1.55291 139.453 1.20493 139.308 0.948331 139.052C0.691734 138.795 0.547513 138.447 0.547368 138.085V54.9069C0.547865 54.5531 0.68513 54.2132 0.930466 53.9582C1.1758 53.7033 1.51022 53.553 1.86381 53.5388L34.2105 66.9567L78.3504 85.2668C78.8282 85.4611 79.3636 85.4582 79.8392 85.2586L122.611 66.9977L154.139 53.5388C154.492 53.554 154.825 53.7047 155.07 53.9595C155.315 54.2144 155.452 54.5536 155.453 54.9069V138.085Z" fill="#060606"/>
<path d="M78.6417 68.7167C77.0091 68.7197 75.4197 68.1919 74.1134 67.2129L74.0324 67.1521L56.9788 54.0988C56.1891 53.4938 55.5262 52.7392 55.0281 51.8782C54.53 51.0171 54.2065 50.0663 54.0759 49.0803C53.9453 48.0942 54.0103 47.092 54.2672 46.131C54.524 45.17 54.9676 44.269 55.5728 43.4795C56.1779 42.6899 56.9327 42.0272 57.794 41.5293C58.6553 41.0313 59.6063 40.7078 60.5926 40.5773C61.579 40.4468 62.5814 40.5117 63.5426 40.7685C64.5039 41.0253 65.4051 41.4688 66.1949 42.0738L77.2409 50.5414L103.344 16.5078C103.95 15.7184 104.705 15.056 105.566 14.5584C106.428 14.0607 107.379 13.7376 108.365 13.6074C109.352 13.4772 110.354 13.5425 111.315 13.7997C112.276 14.0568 113.177 14.5007 113.967 15.106L113.805 15.3263L113.971 15.1092C115.564 16.3329 116.606 18.1383 116.869 20.1292C117.132 22.1201 116.594 24.134 115.373 25.729L84.6694 65.7607C83.9593 66.6831 83.0462 67.4296 82.0008 67.9423C80.9555 68.4549 79.806 68.7199 78.6417 68.7167V68.7167Z" fill="#0C5E84"/>
</g>
<defs>
<clipPath id="clip0_543_70">
<rect width="156" height="140" fill="white"/>
</clipPath>
</defs>
</svg>
